<?xml version="1.0" ?><svg
  id="Capa_1"
  style="enable-background: new 0 0 150 150"
  version="1.1"
  viewBox="0 0 150 150"
  xml:space="preserve"
  xmlns="http://www.w3.org/2000/svg"
  xmlns:xlink="http://www.w3.org/1999/xlink"
>
  <style type="text/css">
    .st0 {
      fill: #1a73e8;
    }
    .st1 {
      fill: #ea4335;
    }
    .st2 {
      fill: #4285f4;
    }
    .st3 {
      fill: #fbbc04;
    }
    .st4 {
      fill: #34a853;
    }
    .st5 {
      fill: #4caf50;
    }
    .st6 {
      fill: #1e88e5;
    }
    .st7 {
      fill: #e53935;
    }
    .st8 {
      fill: #c62828;
    }
    .st9 {
      fill: #fbc02d;
    }
    .st10 {
      fill: #1565c0;
    }
    .st11 {
      fill: #2e7d32;
    }
    .st12 {
      fill: #f6b704;
    }
    .st13 {
      fill: #e54335;
    }
    .st14 {
      fill: #4280ef;
    }
    .st15 {
      fill: #34a353;
    }
    .st16 {
      clip-path: url(#SVGID_2_);
    }
    .st17 {
      fill: #188038;
    }
    .st18 {
      opacity: 0.2;
      fill: #ffffff;
      enable-background: new;
    }
    .st19 {
      opacity: 0.3;
      fill: #0d652d;
      enable-background: new;
    }
    .st20 {
      clip-path: url(#SVGID_4_);
    }
    .st21 {
      opacity: 0.3;
      fill: url(#_45_shadow_1_);
      enable-background: new;
    }
    .st22 {
      clip-path: url(#SVGID_6_);
    }
    .st23 {
      fill: #fa7b17;
    }
    .st24 {
      opacity: 0.3;
      fill: #174ea6;
      enable-background: new;
    }
    .st25 {
      opacity: 0.3;
      fill: #a50e0e;
      enable-background: new;
    }
    .st26 {
      opacity: 0.3;
      fill: #e37400;
      enable-background: new;
    }
    .st27 {
      fill: url(#Finish_mask_1_);
    }
    .st28 {
      fill: #ffffff;
    }
    .st29 {
      fill: #0c9d58;
    }
    .st30 {
      opacity: 0.2;
      fill: #004d40;
      enable-background: new;
    }
    .st31 {
      opacity: 0.2;
      fill: #3e2723;
      enable-background: new;
    }
    .st32 {
      fill: #ffc107;
    }
    .st33 {
      opacity: 0.2;
      fill: #1a237e;
      enable-background: new;
    }
    .st34 {
      opacity: 0.2;
    }
    .st35 {
      fill: #1a237e;
    }
    .st36 {
      fill: url(#SVGID_7_);
    }
    .st37 {
      fill: #fbbc05;
    }
    .st38 {
      clip-path: url(#SVGID_9_);
      fill: #e53935;
    }
    .st39 {
      clip-path: url(#SVGID_11_);
      fill: #fbc02d;
    }
    .st40 {
      clip-path: url(#SVGID_13_);
      fill: #e53935;
    }
    .st41 {
      clip-path: url(#SVGID_15_);
      fill: #fbc02d;
    }
  </style>
  <g>
    <path
      class="st14"
      d="M120,76.1c0-3.1-0.3-6.3-0.8-9.3H75.9v17.7h24.8c-1,5.7-4.3,10.7-9.2,13.9l14.8,11.5   C115,101.8,120,90,120,76.1L120,76.1z"
    />
    <path
      class="st15"
      d="M75.9,120.9c12.4,0,22.8-4.1,30.4-11.1L91.5,98.4c-4.1,2.8-9.4,4.4-15.6,4.4c-12,0-22.1-8.1-25.8-18.9   L34.9,95.6C42.7,111.1,58.5,120.9,75.9,120.9z"
    />
    <path
      class="st12"
      d="M50.1,83.8c-1.9-5.7-1.9-11.9,0-17.6L34.9,54.4c-6.5,13-6.5,28.3,0,41.2L50.1,83.8z"
    />
    <path
      class="st13"
      d="M75.9,47.3c6.5-0.1,12.9,2.4,17.6,6.9L106.6,41C98.3,33.2,87.3,29,75.9,29.1c-17.4,0-33.2,9.8-41,25.3   l15.2,11.8C53.8,55.3,63.9,47.3,75.9,47.3z"
    />
  </g>
</svg>
